<?xml version="1.0" encoding="utf-8"?>
<!-- Svg Vector Icons : http://www.onlinewebfonts.com/icon -->
<!DOCTYPE svg PUBLIC "-//W3C//DTD SVG 1.1//EN" "http://www.w3.org/Graphics/SVG/1.1/DTD/svg11.dtd">
<svg version="1.1" xmlns="http://www.w3.org/2000/svg" xmlns:xlink="http://www.w3.org/1999/xlink" x="0px" y="0px" viewBox="0 0 1000 1000" enable-background="new 0 0 1000 1000" xml:space="preserve">
<metadata> Svg Vector Icons : http://www.onlinewebfonts.com/icon </metadata>
<g><g transform="translate(0.000000,511.000000) scale(0.100000,-0.100000)"><path d="M2595.9,3236.5c-277.8-54.7-551.3-188.1-745.9-363.1C1692.5,2729,100,714.3,100,657.5c0-21.9,118.1-824.7,262.5-1785C506.9-2090.1,625-2888.5,625-2903.8s24.1-52.5,54.7-80.9l52.5-54.7h2080.3h2080.3l52.5,54.7c30.6,28.4,54.7,65.6,54.7,80.9c0,50.3,343.4,2314.4,352.2,2323.1c4.4,4.4,964.7,124.7,2130.6,264.7c1365,164.1,2139.4,266.9,2170,284.4c32.8,21.9,74.4,118.1,146.6,332.5c54.7,166.2,100.6,323.7,100.6,347.8c0,26.2-19.7,70-41.6,98.4l-41.6,52.5l-2194.1,10.9l-2191.9,10.9l-673.8,918.8c-371.9,505.3-719.7,969.1-774.4,1032.5C3672.2,3127.1,3068.4,3330.6,2595.9,3236.5z M3258.7,2847.1c164.1-56.9,304.1-146.6,426.6-273.4c52.5-54.7,369.7-470.3,704.4-925.3l605.9-826.9L3917.2,815c-592.8-2.2-1572.8-2.2-2176.6,0l-1095.9,6.6l669.4,853.1c367.5,470.3,713.1,894.7,770,945c133.4,120.3,323.7,220.9,494.4,260.3C2764.4,2921.5,3090.3,2906.2,3258.7,2847.1z M5137.8,412.4c-4.4-28.4-105-708.7-225.3-1515.9c-120.3-807.2-225.3-1491.9-231.9-1524.7l-13.1-61.3h-1855h-1855l-13.1,61.3c-6.6,32.8-111.6,717.5-231.9,1524.7C592.2-296.3,491.6,384,487.2,412.4l-8.8,48.1h2334.1h2334.1L5137.8,412.4z M9447.2,362.1c-19.7-63.4-45.9-98.4-67.8-98.4S8456.2,154.3,7373.4,25.3C6290.6-106,5404.7-213.2,5402.5-211c-4.4,4.4,70,487.8,89.7,601.6l13.1,70h1988.4h1988.4L9447.2,362.1z"/><path d="M1204.7-294.1c-30.6-28.4-54.7-74.4-54.7-98.4c0-109.4,181.6-1130.9,207.8-1172.5c63.4-98.4,238.4-83.1,295.3,24.1c24.1,45.9,15.3,135.6-65.6,627.8c-83.1,494.4-102.8,581.9-144.4,623.4C1375.3-221.9,1272.5-224.1,1204.7-294.1z"/></g></g>
</svg>