<?xml version="1.0" encoding="UTF-8"?>
<svg id="Layer_1" data-name="Layer 1" xmlns="http://www.w3.org/2000/svg" viewBox="0 0 1001.33 1000">
  <defs>
    <style>
      .cls-1 {
        letter-spacing: -.01em;
      }

      .cls-2 {
        font-family: MontserratRoman-Bold, Montserrat;
        font-size: 30px;
        font-variation-settings: 'wght' 700;
        font-weight: 700;
      }

      .cls-3 {
        letter-spacing: 0em;
      }

      .cls-4 {
        letter-spacing: 0em;
      }

      .cls-5 {
        letter-spacing: -.03em;
      }

      .cls-6 {
        fill: #f04923;
      }

      .cls-7 {
        fill: #fcfcfc;
      }
    </style>
  </defs>
  <rect class="cls-6" width="1001.33" height="1000" rx="391.94" ry="391.94"/>
  <g>
    <path d="m215.92,245.36c-26.24,10.65-50.55,28.94-66.34,49.81-12.72,17.17-130.81,245.21-129.73,250.79.42,2.15,27.26,78.73,59.67,170.27,32.46,91.77,59.22,167.91,59.51,169.41s3.36,4.7,6.91,6.9l6.19,4.37,204.24-39.51,204.24-39.51,4.12-6.37c2.46-3.37,4.12-7.48,3.83-8.98-.96-4.94-10.24-233.75-9.54-234.77.35-.52,92.35-30.56,204.16-66.45,130.9-42.03,204.98-66.83,207.65-69.13,2.8-2.77,5.06-13.01,8.08-35.43,2.21-17.36,3.73-33.69,3.27-36.06-.5-2.57-3.26-6.5-5.95-8.87l-5.08-4.36-215.62,40.6-215.41,40.56-83.6-77.41c-46.11-42.55-89.06-81.48-95.64-86.66-37.21-28.9-100.35-37.41-144.95-19.2Zm72.47,25.64c17.19,2.47,32.64,8.62,47.08,18.74,6.19,4.37,45.23,39.15,86.73,77.47l75.19,69.68-105.75,21.12c-58.16,11.47-154.38,30.08-213.7,41.34l-107.72,20.16,49.52-96.47c27.15-53.15,53.02-101.38,57.65-107.4,10.81-14.34,27.59-27.84,43.6-34.95,17.46-7.6,49.75-12.29,67.41-9.69Zm230.73,203.35c.11,2.87,3.15,71.57,6.67,153.11,3.52,81.54,6.21,150.75,6.19,154.1l-.12,6.27-182.12,35.23-182.12,35.23-2.45-5.77c-1.27-3.09-24.58-68.32-51.72-145.29-27.14-76.97-49.94-141.85-50.91-144.55l-1.78-4.56,229.16-44.33,229.16-44.33.05,4.89Zm424.05-76.9c-.73,6.6-2.64,10.53-4.79,10.95s-88.56,28.27-192.42,61.5c-103.82,33.45-188.76,60.8-189.02,60.63-.52-.35-2.39-49.22-2.62-60.77l-.04-7.12,195.22-37.76,195.22-37.76-1.56,10.33Z"/>
    <path d="m146.38,618.42c-2.46,3.37-3.96,8.34-3.5,10.7,2.08,10.74,39.31,107.58,42.67,111.17,8.09,8.46,24.98,3.63,28.53-7.97,1.49-4.96-1.07-13.6-18.36-60.39-17.55-46.96-21.14-55.18-26.02-58.46-7.94-5.37-18-3.2-23.32,4.96Z"/>
  </g>
  <polygon class="cls-7" points="70.56 523.18 182.74 503.01 111.1 416.66 70.56 523.18"/>
  <polygon class="cls-7" points="500 442.89 384.68 469.47 419.32 356.31 500 442.89"/>
  <rect class="cls-7" x="104.57" y="405.54" width="345.77" height="80.28" transform="translate(-74.48 56.13) rotate(-10.19)"/>
  <rect class="cls-7" x="102.21" y="339.41" width="318.77" height="80.28" rx="40.14" ry="40.14" transform="translate(-63.03 52.28) rotate(-10.19)"/>
  <rect class="cls-7" x="151.1" y="294.39" width="220.99" height="80.28" rx="40.14" ry="40.14" transform="translate(-55.07 51.57) rotate(-10.19)"/>
  <rect class="cls-7" x="174.14" y="270.78" width="166.42" height="80.28" rx="40.14" ry="40.14" transform="translate(-50.96 50.44) rotate(-10.19)"/>
  <text class="cls-2" transform="translate(650.67 699.8)"><tspan class="cls-5" x="0" y="0">T</tspan><tspan class="cls-1" x="17.58" y="0">w</tspan><tspan class="cls-3" x="45.24" y="0">o</tspan><tspan x="0" y="36">S</tspan><tspan class="cls-4" x="19.14" y="36">c</tspan><tspan x="36.66" y="36">oopes</tspan></text>
</svg>